<?xml version="1.0" encoding="UTF-8" standalone="no"?><!DOCTYPE svg PUBLIC "-//W3C//DTD SVG 1.1//EN" "http://www.w3.org/Graphics/SVG/1.1/DTD/svg11.dtd"><svg width="100%" height="100%" viewBox="0 0 64 64" version="1.1" xmlns="http://www.w3.org/2000/svg" xmlns:xlink="http://www.w3.org/1999/xlink" xml:space="preserve" xmlns:serif="http://www.serif.com/" style="fill-rule:evenodd;clip-rule:evenodd;stroke-linejoin:round;stroke-miterlimit:2;"><path d="M31.997,0.79c-17.67,-0 -31.997,14.327 -31.997,32.001c0,14.138 9.168,26.131 21.884,30.364c1.601,0.293 2.185,-0.695 2.185,-1.544c-0,-0.758 -0.028,-2.771 -0.044,-5.441c-8.901,1.933 -10.779,-4.291 -10.779,-4.291c-1.455,-3.697 -3.553,-4.681 -3.553,-4.681c-2.906,-1.984 0.22,-1.945 0.22,-1.945c3.212,0.226 4.901,3.299 4.901,3.299c2.854,4.889 7.49,3.477 9.313,2.658c0.291,-2.067 1.116,-3.478 2.032,-4.277c-7.106,-0.807 -14.577,-3.554 -14.577,-15.816c0,-3.493 1.248,-6.349 3.295,-8.587c-0.33,-0.809 -1.428,-4.062 0.312,-8.468c0,-0 2.688,-0.861 8.801,3.28c2.552,-0.711 5.29,-1.064 8.011,-1.076c2.717,0.012 5.455,0.365 8.011,1.076c6.109,-4.141 8.791,-3.28 8.791,-3.28c1.746,4.406 0.648,7.659 0.318,8.468c2.051,2.238 3.291,5.094 3.291,8.587c-0,12.294 -7.483,14.999 -14.612,15.79c1.149,0.989 2.173,2.941 2.173,5.927c-0,4.277 -0.04,7.728 -0.04,8.777c0,0.857 0.576,1.853 2.201,1.54c12.706,-4.241 21.866,-16.226 21.866,-30.36c0,-17.674 -14.329,-32.001 -32.003,-32.001" style="fill:#fff;"/></svg>